<svg width="16" height="16" viewBox="0 0 16 16" fill="none" xmlns="http://www.w3.org/2000/svg">
<g clip-path="url(#clip0_132_646)">
<path d="M7.99902 1.66626C8.08743 1.66626 8.17284 1.7014 8.23535 1.76392C8.29786 1.82643 8.33301 1.91184 8.33301 2.00024V3.00806L8.61035 3.05493C9.46406 3.19923 10.2396 3.64104 10.7988 4.302C11.2882 4.88045 11.5843 5.59451 11.6514 6.34399L11.666 6.66724V9.02271L11.8887 9.10083C12.2127 9.21548 12.4935 9.42788 12.6924 9.70825C12.8911 9.9886 12.998 10.3236 12.999 10.6672V12.0002C12.9989 12.0885 12.9638 12.1732 12.9014 12.2356C12.8389 12.298 12.7543 12.3333 12.666 12.3333H10.3174L10.251 12.5793C10.1166 13.0736 9.8229 13.5095 9.41602 13.8206C9.00911 14.1316 8.5112 14.301 7.99902 14.301C7.48691 14.301 6.98888 14.1316 6.58203 13.8206C6.17532 13.5095 5.88238 13.0734 5.74805 12.5793L5.68066 12.3333H3.33301C3.2446 12.3333 3.15919 12.2981 3.09668 12.2356C3.03435 12.1732 2.99911 12.0885 2.99902 12.0002V10.6672C3.00005 10.3235 3.10781 9.98864 3.30664 9.70825C3.50554 9.4278 3.78619 9.21546 4.11035 9.10083L4.33301 9.02271V6.66724C4.33389 5.80137 4.64094 4.96304 5.2002 4.302C5.75943 3.64112 6.53504 3.19922 7.38867 3.05493L7.66602 3.00806V2.00024C7.66602 1.91184 7.70116 1.82643 7.76367 1.76392C7.82609 1.70158 7.91081 1.66635 7.99902 1.66626ZM6.56445 12.8333C6.70987 13.0851 6.91854 13.2945 7.16992 13.4407C7.42127 13.5868 7.70635 13.6645 7.99707 13.6663H8.00098C8.29183 13.6645 8.57765 13.5869 8.8291 13.4407C9.08048 13.2945 9.28917 13.0851 9.43457 12.8333L9.72363 12.3333H6.27539L6.56445 12.8333ZM4.66602 9.66626C4.40088 9.66626 4.1465 9.77179 3.95898 9.95923C3.77152 10.1467 3.6661 10.4012 3.66602 10.6663V11.6663H12.333V10.6663C12.3329 10.4012 12.2275 10.1467 12.04 9.95923C11.8526 9.77177 11.5981 9.66635 11.333 9.66626H4.66602ZM7.99902 3.66626C7.20349 3.66635 6.44046 3.98263 5.87793 4.54517C5.3154 5.1077 4.99911 5.87073 4.99902 6.66626V9.00024H10.999V6.66626C10.9989 5.8708 10.6835 5.10768 10.1211 4.54517C9.55848 3.98256 8.79467 3.66626 7.99902 3.66626Z" fill="#061935" stroke="currentColor" stroke-width="0.666667"/>
</g>
<defs>
<clipPath id="clip0_132_646">
<rect width="16" height="16" fill="white"/>
</clipPath>
</defs>
</svg>
