<svg width="16" height="16" viewBox="0 0 16 16" fill="none" xmlns="http://www.w3.org/2000/svg">
<g clip-path="url(#clip0_132_605)">
<path d="M12.6663 2.66675H3.33301C2.19967 2.66675 1.33301 3.53341 1.33301 4.66675V10.6667C1.33301 11.8001 2.19967 12.6667 3.33301 12.6667H12.6663C13.7997 12.6667 14.6663 11.8001 14.6663 10.6667V4.66675C14.6663 3.53341 13.733 2.66675 12.6663 2.66675ZM8.66634 10.6667C7.53301 10.6667 6.66634 9.80008 6.66634 8.66675C6.66634 7.53341 7.53301 6.66675 8.66634 6.66675C8.86634 6.66675 8.99968 6.66675 9.19968 6.73342C8.33301 6.93342 7.73301 7.73341 7.73301 8.66675C7.73301 9.60008 8.39967 10.4001 9.19968 10.6001C8.99968 10.6667 8.79968 10.6667 8.66634 10.6667ZM10.6663 10.6667C9.53301 10.6667 8.66634 9.80008 8.66634 8.66675C8.66634 7.53341 9.53301 6.66675 10.6663 6.66675C11.7997 6.66675 12.6663 7.53341 12.6663 8.66675C12.6663 9.80008 11.733 10.6667 10.6663 10.6667Z" stroke="currentColor"/>
</g>
<defs>
<clipPath id="clip0_132_605">
<rect width="16" height="16" fill="white"/>
</clipPath>
</defs>
</svg>
