  <svg
            width="26"
            height="24"
            viewBox="0 0 26 24"
            fill="none"
            xmlns="http://www.w3.org/2000/svg"
          >
            <path
              d="M11.7178 11.4984C5.25511 11.4984 0 6.34168 0 0H4.70438C4.70438 3.79589 7.84948 6.88209 11.7178 6.88209V11.4984Z"
              fill="#061935"
            />
            <path
              d="M25.513 11.4984C19.0503 11.4984 13.7951 6.34168 13.7951 0H18.4995C18.4995 3.79589 21.6446 6.88209 25.513 6.88209V11.4984Z"
              fill="#061935"    
            />
            <path
              d="M11.7178 24C5.25511 24 0 18.8433 0 12.5016H4.70438C4.70438 16.2975 7.84948 19.3837 11.7178 19.3837V24Z"
              fill="#061935"
            />
            <path
              d="M25.513 24C19.0503 24 13.7951 18.8433 13.7951 12.5016H18.4995C18.4995 16.2975 21.6446 19.3837 25.513 19.3837V24Z"
              fill="#061935"
            />
          </svg>