<svg width="16" height="16" viewBox="0 0 16 16" fill="none" xmlns="http://www.w3.org/2000/svg">
<g clip-path="url(#clip0_132_588)">
<path d="M8.57876 9.54946C8.6129 9.68052 8.59172 9.82023 8.52128 9.93592C8.45076 10.0515 8.33629 10.1334 8.20417 10.1631C6.60471 10.5231 4.99185 9.57915 4.52313 8.00817C4.48439 7.87825 4.50034 7.73739 4.56684 7.61925C4.63336 7.50122 4.74494 7.41525 4.87603 7.38099L5.75567 7.15112C6.01294 7.08389 6.27849 7.2296 6.35917 7.48295C6.54698 8.07366 7.15601 8.43113 7.76329 8.30606C8.0238 8.25233 8.28139 8.41152 8.34864 8.66887L8.57876 9.54946Z" stroke="currentColor" stroke-linejoin="round"/>
<path d="M7.95117 3.99984L8.18555 3.36626C8.26282 2.90574 8.68064 2.59831 9.11864 2.67951L13.0138 3.40145C13.452 3.48266 13.7444 3.92155 13.6671 4.38206L12.5478 11.0532C12.4705 11.5137 12.0527 11.8211 11.6147 11.7399L11.0534 11.6358" stroke="currentColor" stroke-miterlimit="10"/>
<path d="M7.50879 3.74683C8.09466 3.74697 8.64683 4.12658 8.8125 4.72632L10.5762 11.1101C10.7757 11.832 10.3299 12.5538 9.61816 12.739L5.5791 13.7888C5.4634 13.819 5.34688 13.8327 5.23242 13.8328C4.64647 13.8328 4.09347 13.454 3.92773 12.8542L2.16406 6.46948C1.96473 5.7476 2.41122 5.02567 3.12305 4.84058L7.16211 3.79077C7.27768 3.76072 7.39446 3.74683 7.50879 3.74683Z" stroke="currentColor" stroke-miterlimit="10"/>
</g>
<defs>
<clipPath id="clip0_132_588">
<rect width="16" height="16" fill="white"/>
</clipPath>
</defs>
</svg>
