   <svg
                width="14"
                height="14"
                viewBox="0 0 14 14"
                fill="none"
                xmlns="http://www.w3.org/2000/svg"
              >
                <rect width="14" height="14" rx="7" fill="#FF5A00" />
                <g clip-path="url(#clip0_8_656)">
                  <path
                    d="M11.1668 6.20815C11.2085 5.99981 11.0418 5.74981 10.8335 5.74981L8.4585 5.41648L7.37516 3.24981C7.3335 3.16648 7.29183 3.12481 7.2085 3.08314C7.00016 2.95814 6.75016 3.04148 6.62516 3.24981L5.5835 5.41648L3.2085 5.74981C3.0835 5.74981 3.00016 5.79148 2.9585 5.87481C2.79183 6.04148 2.79183 6.29148 2.9585 6.45814L4.66683 8.12481L4.25016 10.4998C4.25016 10.5831 4.25016 10.6665 4.29183 10.7498C4.41683 10.9581 4.66683 11.0415 4.87516 10.9165L7.00016 9.79148L9.12516 10.9165C9.16683 10.9581 9.25016 10.9581 9.3335 10.9581C9.37516 10.9581 9.37516 10.9581 9.41683 10.9581C9.62516 10.9165 9.79183 10.7081 9.75016 10.4581L9.3335 8.08314L11.0418 6.41648C11.1252 6.37481 11.1668 6.29148 11.1668 6.20815Z"
                    fill="white"
                  />
                </g>
                <defs>
                  <clipPath id="clip0_8_656">
                    <rect
                      width="10"
                      height="10"
                      fill="white"
                      transform="translate(2 2)"
                    />
                  </clipPath>
                </defs>
              </svg>