<svg width="16" height="16" viewBox="0 0 16 16" fill="none" xmlns="http://www.w3.org/2000/svg">
<g clip-path="url(#clip0_132_618)">
<path d="M13.3329 14.6668H5.57614C4.83986 14.6668 4.24295 14.0699 4.24295 13.3335V13.1153C2.22135 12.6468 0.962399 10.6283 1.43083 8.60653C1.75443 7.20895 2.84553 6.11774 4.24295 5.7941V2.66683C4.24295 1.93047 4.83986 1.3335 5.57614 1.3335H10.9913C11.3461 1.33289 11.6867 1.47441 11.9367 1.72623L14.2734 4.06319C14.5315 4.31926 14.6733 4.66956 14.6661 5.03289V13.3335C14.6661 14.0699 14.0692 14.6668 13.3329 14.6668ZM4.97015 13.2123V13.3335C4.97015 13.6683 5.24133 13.9396 5.57614 13.9396H13.3329C13.6677 13.9396 13.9389 13.6683 13.9389 13.3335V5.45471H11.8785C11.1422 5.45471 10.5453 4.85774 10.5453 4.12138V2.06077H5.57614C5.24133 2.06077 4.97015 2.33198 4.97015 2.66683V5.69713H5.09135C7.16628 5.69713 8.84852 7.37956 8.84852 9.45471C8.84852 11.5299 7.16628 13.2123 5.09135 13.2123H4.97015ZM5.09135 6.42441C3.41789 6.42441 2.06137 7.78107 2.06137 9.45471C2.06137 11.1283 3.41789 12.485 5.09135 12.485C6.7648 12.485 8.12132 11.1283 8.12132 9.45471C8.12132 7.78107 6.7648 6.42441 5.09135 6.42441ZM11.2725 2.12865V4.12138C11.2725 4.45622 11.5437 4.72744 11.8785 4.72744H13.871C13.841 4.67229 13.8034 4.62168 13.7595 4.57713L11.4228 2.24016C11.3782 2.19623 11.3276 2.15865 11.2725 2.12865ZM12.3633 11.2729H9.93931C9.73842 11.2729 9.57571 11.1102 9.57571 10.9093C9.57571 10.7083 9.73842 10.5456 9.93931 10.5456H12.3633C12.5642 10.5456 12.7269 10.7083 12.7269 10.9093C12.7269 11.1102 12.5642 11.2729 12.3633 11.2729ZM4.36415 10.5456C4.27053 10.5383 4.18357 10.495 4.12176 10.4244C3.99844 10.2862 3.99844 10.0777 4.12176 9.93956L4.74229 9.31895V8.00016C4.74229 7.79925 4.905 7.63653 5.10589 7.63653C5.30678 7.63653 5.46949 7.79925 5.46949 8.00016V9.45471C5.46949 9.55107 5.43101 9.6435 5.36283 9.71168L4.60655 10.4244C4.54474 10.495 4.45778 10.5383 4.36415 10.5456ZM12.3633 9.3335H10.4241C10.2232 9.3335 10.0605 9.17077 10.0605 8.96986C10.0605 8.76895 10.2232 8.60622 10.4241 8.60622H12.3633C12.5642 8.60622 12.7269 8.76895 12.7269 8.96986C12.7269 9.17077 12.5642 9.3335 12.3633 9.3335ZM12.3633 7.3941H9.93931C9.73842 7.3941 9.57571 7.23138 9.57571 7.03047C9.57571 6.82956 9.73842 6.66683 9.93931 6.66683H12.3633C12.5642 6.66683 12.7269 6.82956 12.7269 7.03047C12.7269 7.23138 12.5642 7.3941 12.3633 7.3941ZM8.96972 5.45471H7.51533C7.31444 5.45471 7.15173 5.29198 7.15173 5.09107C7.15173 4.89016 7.31444 4.72744 7.51533 4.72744H8.96972C9.17061 4.72744 9.33332 4.89016 9.33332 5.09107C9.33332 5.29198 9.17061 5.45471 8.96972 5.45471Z" fill="#061935" stroke="#061935" stroke-width="0.266667"/>
</g>
<defs>
<clipPath id="clip0_132_618">
<rect width="16" height="16" fill="white"/>
</clipPath>
</defs>
</svg>

